<?xml version="1.0" encoding="UTF-8" standalone="no"?>
<!-- Created with Inkscape (http://www.inkscape.org/) -->

<svg
   width="300"
   height="300"
   viewBox="0 0 300.00001 300.00001"
   version="1.1"
   inkscape:version="1.3.2 (091e20e, 2023-11-25, custom)"
   sodipodi:docname="target_beacon.svg"
   xmlns:inkscape="http://www.inkscape.org/namespaces/inkscape"
   xmlns:sodipodi="http://sodipodi.sourceforge.net/DTD/sodipodi-0.dtd"
   xmlns="http://www.w3.org/2000/svg"
   xmlns:svg="http://www.w3.org/2000/svg">
   <sodipodi:namedview
      id="namedview7"
      pagecolor="#ffffff"
      bordercolor="#cccccc"
      borderopacity="1"
      inkscape:pageshadow="0"
      inkscape:pageopacity="1"
      inkscape:pagecheckerboard="0"
      inkscape:document-units="px"
      showgrid="false"
      units="px"
      inkscape:showpageshadow="0"
      inkscape:deskcolor="#d1d1d1"
      inkscape:zoom="2.2273864"
      inkscape:cx="125.48339"
      inkscape:cy="124.58548"
      inkscape:window-width="2304"
      inkscape:window-height="1202"
      inkscape:window-x="-11"
      inkscape:window-y="-11"
      inkscape:window-maximized="1"
      inkscape:current-layer="layer1" />
   <ellipse
      style="fill:#ff2a2a;fill-opacity:1;stroke:none;stroke-width:3;stroke-linecap:round;stroke-dasharray:none;stroke-opacity:1"
      id="path11"
      cx="150"
      cy="197.5"
      rx="46.941734"
      ry="23.338833" />
   <path
      id="path4"
      style="display:inline;fill:#ff2a2a;stroke:none;stroke-width:5.00001;stroke-linecap:round;stroke-opacity:1"
      d="M 150.00001,136.57556 A 121.90948,60.924436 0 0 0 28.090532,197.49999 121.90948,60.924436 0 0 0 150.00001,258.42443 121.90948,60.924436 0 0 0 271.90948,197.49999 121.90948,60.924436 0 0 0 150.00001,136.57556 Z m 0,12.18489 a 97.527578,48.739545 0 0 1 97.52757,48.73954 97.527578,48.739545 0 0 1 -97.52757,48.73954 97.527578,48.739545 0 0 1 -97.527583,-48.73954 97.527578,48.739545 0 0 1 97.527583,-48.73954 z" />
   <path
      id="target_beacon:pin_white"
      style="opacity:1;fill:#ffffff;fill-opacity:1;stroke:none;stroke-width:3;stroke-linecap:round;stroke-dasharray:none;stroke-opacity:1"
      d="m 149.99992,2.554691 c -27.61419,-2e-6 -49.999945,22.385764 -49.999945,49.999942 0.0232,4.372865 0.620225,8.7238 1.775395,12.941395 h -0.0702 l 25.99215,96.503802 22.30074,35.33327 22.30273,-35.33327 25.99605,-96.503802 h -0.0722 c 1.15515,-4.217595 1.75205,-8.56853 1.77538,-12.941395 0,-27.614178 -22.38577,-49.999942 -49.99994,-49.999942 z m 0,24.99997 c 13.8071,0 24.99997,11.192868 24.99997,24.999972 0,13.807105 -11.19287,24.999971 -24.99997,24.999971 -13.8071,0 -24.99996,-11.192866 -24.99996,-24.999971 0,-13.807104 11.19285,-24.999972 24.99996,-24.999972 z"
      sodipodi:nodetypes="scccccccccsssssss" />
   <path
      id="target_beacon:pin_red"
      style="display:inline;opacity:1;fill:#ff8080;fill-opacity:1;stroke:#ffd5d5;stroke-width:3;stroke-linecap:round;stroke-dasharray:none;stroke-opacity:1"
      d="m 149.99992,2.554691 c -27.61419,-2e-6 -49.999945,22.385764 -49.999945,49.999942 0.0232,4.372865 0.620225,8.7238 1.775395,12.941395 h -0.0702 l 25.99215,96.503802 22.30074,35.33327 22.30273,-35.33327 25.99605,-96.503802 h -0.0722 c 1.15515,-4.217595 1.75205,-8.56853 1.77538,-12.941395 0,-27.614178 -22.38577,-49.999942 -49.99994,-49.999942 z m 0,24.99997 c 13.8071,0 24.99997,11.192868 24.99997,24.999972 0,13.807105 -11.19287,24.999971 -24.99997,24.999971 -13.8071,0 -24.99996,-11.192866 -24.99996,-24.999971 0,-13.807104 11.19285,-24.999972 24.99996,-24.999972 z"
      sodipodi:nodetypes="scccccccccsssssss">
      <animate attributeName="opacity" values="1;0.8;1" dur="1s"
         repeatCount="indefinite" />
   </path>
</svg>