<?xml version="1.0" encoding="UTF-8" standalone="no"?>
<!-- Created with Inkscape (http://www.inkscape.org/) -->

<svg
   width="300"
   height="300"
   viewBox="0 0 300.00001 300.00001"
   version="1.1"
   id="svg5"
   inkscape:version="1.3.2 (091e20e, 2023-11-25, custom)"
   sodipodi:docname="tile_dirt_02.svg"
   xmlns:inkscape="http://www.inkscape.org/namespaces/inkscape"
   xmlns:sodipodi="http://sodipodi.sourceforge.net/DTD/sodipodi-0.dtd"
   xmlns:xlink="http://www.w3.org/1999/xlink"
   xmlns="http://www.w3.org/2000/svg"
   xmlns:svg="http://www.w3.org/2000/svg">
  <sodipodi:namedview
     id="namedview7"
     pagecolor="#ffffff"
     bordercolor="#cccccc"
     borderopacity="1"
     inkscape:pageshadow="0"
     inkscape:pageopacity="1"
     inkscape:pagecheckerboard="0"
     inkscape:document-units="px"
     showgrid="false"
     units="px"
     inkscape:zoom="2.9387774"
     inkscape:cx="189.36446"
     inkscape:cy="145.46866"
     inkscape:window-width="2304"
     inkscape:window-height="1262"
     inkscape:window-x="-11"
     inkscape:window-y="-11"
     inkscape:window-maximized="1"
     inkscape:current-layer="layer7"
     inkscape:showpageshadow="0"
     inkscape:deskcolor="#d1d1d1" />
  <defs
     id="defs2">
    <linearGradient
       inkscape:collect="always"
       id="linearGradient6775">
      <stop
         style="stop-color:#000000;stop-opacity:0.40000001"
         offset="0"
         id="stop6771" />
      <stop
         style="stop-color:#000000;stop-opacity:0.30000001"
         offset="0.36134452"
         id="stop7037" />
      <stop
         style="stop-color:#000000;stop-opacity:0"
         offset="1"
         id="stop6773" />
    </linearGradient>
    <radialGradient
       inkscape:collect="always"
       xlink:href="#linearGradient6775"
       id="radialGradient6779-9"
       cx="-303.15753"
       cy="335.33987"
       fx="-303.15753"
       fy="335.33987"
       r="76.593941"
       gradientUnits="userSpaceOnUse"
       gradientTransform="translate(-43.124321,-170.56634)" />
    <radialGradient
       inkscape:collect="always"
       xlink:href="#linearGradient6775"
       id="radialGradient7162"
       cx="-303.15753"
       cy="335.33987"
       fx="-303.15753"
       fy="335.33987"
       r="76.593941"
       gradientUnits="userSpaceOnUse"
       gradientTransform="translate(-43.124321,-170.56634)" />
    <radialGradient
       inkscape:collect="always"
       xlink:href="#linearGradient6775"
       id="radialGradient6779-2"
       cx="-303.15753"
       cy="335.33987"
       fx="-303.15753"
       fy="335.33987"
       r="76.593941"
       gradientUnits="userSpaceOnUse"
       gradientTransform="translate(-43.124321,-170.56634)" />
    <radialGradient
       inkscape:collect="always"
       xlink:href="#linearGradient6775"
       id="radialGradient7162-9"
       cx="-303.15753"
       cy="335.33987"
       fx="-303.15753"
       fy="335.33987"
       r="76.593941"
       gradientUnits="userSpaceOnUse"
       gradientTransform="translate(-43.124321,-170.56634)" />
    <radialGradient
       inkscape:collect="always"
       xlink:href="#linearGradient6775"
       id="radialGradient6779-5"
       cx="-303.15753"
       cy="335.33987"
       fx="-303.15753"
       fy="335.33987"
       r="76.593941"
       gradientUnits="userSpaceOnUse"
       gradientTransform="translate(-43.124321,-170.56634)" />
    <radialGradient
       inkscape:collect="always"
       xlink:href="#linearGradient6775"
       id="radialGradient7340"
       cx="-303.15753"
       cy="335.33987"
       fx="-303.15753"
       fy="335.33987"
       r="76.593941"
       gradientUnits="userSpaceOnUse"
       gradientTransform="translate(-43.124321,-170.56634)" />
    <radialGradient
       inkscape:collect="always"
       xlink:href="#linearGradient6775"
       id="radialGradient7350"
       cx="-303.15753"
       cy="335.33987"
       fx="-303.15753"
       fy="335.33987"
       r="76.593941"
       gradientUnits="userSpaceOnUse"
       gradientTransform="translate(-43.124321,-170.56634)" />
    <radialGradient
       inkscape:collect="always"
       xlink:href="#linearGradient6775"
       id="radialGradient6779-20"
       cx="-303.15753"
       cy="335.33987"
       fx="-303.15753"
       fy="335.33987"
       r="76.593941"
       gradientUnits="userSpaceOnUse"
       gradientTransform="translate(-43.124321,-170.56634)" />
    <radialGradient
       inkscape:collect="always"
       xlink:href="#linearGradient6775"
       id="radialGradient7512"
       cx="-303.15753"
       cy="335.33987"
       fx="-303.15753"
       fy="335.33987"
       r="76.593941"
       gradientUnits="userSpaceOnUse"
       gradientTransform="translate(-43.124321,-170.56634)" />
  </defs>
  <g
     inkscape:groupmode="layer"
     id="layer1"
     inkscape:label="BG_dirt"
     style="display:none">
    <rect
       style="fill:#c59a57;fill-opacity:1;stroke-width:1.05709;stroke-linecap:round;-inkscape-stroke:none"
       id="rect1"
       width="300"
       height="300"
       x="0"
       y="0"
       sodipodi:insensitive="true" />
  </g>
  <g
     inkscape:groupmode="layer"
     id="layer7"
     inkscape:label="gress"
     style="display:inline">
    <path
       id="use4082-0-9"
       style="display:inline;fill:#ccac59;fill-opacity:1;stroke-width:0.0700593;stroke-linecap:round;-inkscape-stroke:none;stop-color:#000000"
       inkscape:label="GressLight"
       inkscape:transform-center-x="4.6227213e-06"
       inkscape:transform-center-y="-5.6610046"
       d="m 196.02823,196.86259 -4.35069,16.91993 -3.14736,-7.68555 -5.34717,13.0625 -4.78442,-7.56445 -3.35644,5.30664 -4.13937,-8.83399 -3.27859,6.99609 -4.21946,-12.91015 -4.2973,13.15625 -3.20075,-6.41211 -6.38147,12.78906 h 12.76516 7.49804 7.49581 4.86451 2.63354 4.86228 5.26931 7.49582 7.49806 7.49804 7.49582 7.49806 7.49804 l -6.38369,-8.32617 -3.11398,4.0625 -4.38406,-9.35547 -3.21185,6.85547 -4.28397,-13.80664 -4.36403,14.06055 -3.13402,-6.2793 -3.48767,6.99023 -4.00816,-9.79101 -3.14735,7.6875 z" />
    <path
       id="use4082-0-1"
       style="display:inline;fill:#ccac59;fill-opacity:1;stroke-width:0.0791342;stroke-linecap:round;-inkscape-stroke:none;stop-color:#000000"
       inkscape:label="GressLight"
       inkscape:transform-center-x="-7.5357779e-06"
       inkscape:transform-center-y="-5.6610046"
       d="m 248.01191,233.63777 4.00593,12.45508 3.48989,-8.92578 4.37071,11.16992 3.12734,-4.94531 3.35644,5.30664 4.14161,-8.83399 3.27859,6.99609 4.21722,-12.91015 4.29954,13.15429 3.19852,-6.41015 6.38368,12.78906 h -12.76737 -7.49582 -7.49805 -2.22872 -5.2671 -2.23095 -5.26709 -7.49805 -7.49582 -7.49804 l 6.38368,-9.98828 3.34309,5.23242 4.15273,-8.86328 3.25857,6.95313 z" />
    <path
       id="use4082-81-5"
       style="display:inline;fill:#9c8e29;fill-opacity:1;stroke-width:0.0914517;stroke-linecap:round;-inkscape-stroke:none;stop-color:#000000"
       inkscape:label="GressDark"
       inkscape:transform-center-x="-6.525853e-06"
       inkscape:transform-center-y="-5.6610046"
       d="m 100.63489,110.79178 -4.5402,16.91992 -3.282123,-7.68554 -3.514237,8.22265 -4.310398,-13.51562 -4.869806,15.26758 -2.954831,-4.47657 -3.029121,4.58985 -4.7932,-14.13477 -4.807135,14.17188 -3.017512,-4.52344 -3.82992,5.74219 -3.994723,-6.36329 -6.659419,10.60938 h 7.824643 5.496515 7.824643 7.82232 7.82465 7.824622 7.822332 7.82464 7.82464 7.82232 7.82465 7.82232 7.82465 l -6.65943,-10.0918 -3.50496,5.3086 -4.31968,-8.83594 -3.6303,7.42187 -4.19435,-10.53515 -4.2779,10.75 -3.54442,-6.80664 -3.6419,6.99023 -4.18273,-9.79101 -3.28446,7.68554 z" />
    <path
       id="use4082-0-1-5"
       style="display:inline;fill:#9c8e29;fill-opacity:1;stroke-width:0.0920327;stroke-linecap:round;-inkscape-stroke:none;stop-color:#000000"
       inkscape:label="GressDark"
       inkscape:transform-center-x="-9.0307881e-06"
       inkscape:transform-center-y="-5.6610046"
       d="m 214.01667,75.687521 -4.18041,16.142577 -3.64423,-11.56836 -4.55877,14.47852 -3.26587,-6.41016 -3.50264,6.87891 -4.31969,-11.45118 -3.42139,9.06641 -4.40325,-16.732417 -4.48449,17.050777 -3.33783,-8.30859 -6.66174,16.576172 h 7.82464 5.49651 7.82465 7.82232 7.82465 7.82464 7.82232 7.82464 7.82465 l -6.66174,-12.945312 -3.48872,6.78125 -4.33592,-11.48829 -3.40051,9.01172 z" />
  </g>
  <g
     inkscape:groupmode="layer"
     id="layer2"
     inkscape:label="dirt">
    <path
       id="use2"
       style="fill:#b2924b;fill-opacity:1;stroke-width:0.110522;stroke-linecap:round;-inkscape-stroke:none"
       inkscape:label="dirt_proto"
       d="m 233.35744,283.16355 a 18.454948,8.2207082 0 0 1 14.48132,3.14844 14.330978,7.2321753 0 0 1 10.1216,-2.13086 14.330978,7.2321753 0 0 1 13.04413,4.26758 18.359042,3.6036645 0 0 1 10.63643,-0.66797 A 18.359042,3.6036645 0 0 1 300,291.38425 h -27.71169 a 14.330978,7.2321753 0 0 1 0.004,0.0293 h -28.6625 a 14.330978,7.2321753 0 0 1 0.004,-0.0293 h -13.97305 a 20.581895,7.0611738 0 0 1 0.004,0.0293 h -41.16364 a 20.581895,7.0611738 0 0 1 0.004,-0.0293 h -20.23223 a 18.136855,3.6036645 0 0 1 18.1378,-3.60351 18.136855,3.6036645 0 0 1 4.83076,0.13476 20.581895,7.0611738 0 0 1 17.84204,-3.56445 20.581895,7.0611738 0 0 1 11.32873,1.17383 18.454948,8.2207082 0 0 1 12.94337,-2.36133 z" />
    <path
       id="use2-7"
       style="fill:#b2924b;fill-opacity:1;stroke-width:0.108463;stroke-linecap:round;-inkscape-stroke:none"
       inkscape:label="dirt_proto"
       d="m 78.335244,15.822971 a 19.822342,10.189137 0 0 1 16.542173,4.5957 17.773888,7.1257522 0 0 1 11.155423,-1.57617 17.773888,7.1257522 0 0 1 10.78827,1.47656 20.560418,8.4352383 0 0 1 15.14959,-2.74219 20.560418,8.4352383 0 0 1 18.95809,5.20313 17.681522,3.6036645 0 0 1 8.0875,-0.40039 17.681522,3.6036645 0 0 1 17.68156,3.60352 h -24.1697 a 20.560418,8.4352383 0 0 1 0.004,0.0293 h -41.12121 a 20.560418,8.4352383 0 0 1 0.006,-0.0449 H 98.15235 a 19.822342,10.189137 0 0 1 0.0065,0.0449 H 58.512488 a 19.822342,10.189137 0 0 1 0.0043,-0.0293 h -23.7245 a 18.507274,5.7691775 0 0 1 18.506551,-5.76954 18.507274,5.7691775 0 0 1 8.049546,0.58399 19.822342,10.189137 0 0 1 16.987367,-4.97461 z" />
    <path
       id="use2-7-7"
       style="fill:#b2924b;fill-opacity:1;stroke-width:0.108431;stroke-linecap:round;-inkscape-stroke:none"
       inkscape:label="dirt_proto"
       d="m 41.125555,254.63881 a 18.49626,8.8316757 0 0 1 15.931341,4.37305 25.655602,6.4460837 0 0 1 18.36058,-1.95899 25.655602,6.4460837 0 0 1 18.175013,1.91407 30.80547,8.5694278 0 0 1 26.234521,-4.08204 30.80547,8.5694278 0 0 1 28.73967,5.49219 17.670999,3.6036645 0 0 1 9.01055,-0.50976 17.670999,3.6036645 0 0 1 17.67102,3.60351 h -35.34206 a 17.670999,3.6036645 0 0 1 0.004,-0.0156 h -38.84674 a 25.655602,6.4460837 0 0 1 0.0108,0.0449 H 49.763207 a 25.655602,6.4460837 0 0 1 0.0065,-0.0293 H 38.445888 a 19.226368,4.0641408 0 0 1 0.0086,0.0293 H 5.564437e-8 A 19.226368,4.0641408 0 0 1 19.227268,259.43569 a 19.226368,4.0641408 0 0 1 5.280217,0.16211 18.49626,8.8316757 0 0 1 16.618783,-4.95899 z" />
    <path
       id="use2-7-2"
       style="fill:#b2924b;fill-opacity:1;stroke-width:0.10367;stroke-linecap:round;-inkscape-stroke:none"
       inkscape:label="dirt_proto"
       d="m 95.018242,188.12026 a 22.43441,9.9727077 0 0 0 -20.033012,5.50391 20.116022,5.3634802 0 0 0 -11.31439,-0.93164 20.116022,5.3634802 0 0 0 -17.210386,2.60546 20.011485,2.9088877 0 0 0 -6.075096,-0.13671 20.011485,2.9088877 0 0 0 -20.011519,2.9082 h 40.02304 a 20.011485,2.9088877 0 0 0 -0.0024,-0.0137 h 12.193177 a 22.43441,9.9727077 0 0 0 -0.0048,0.0371 h 44.870754 a 22.43441,9.9727077 0 0 0 -0.002,-0.0234 h 24.40306 a 20.946051,5.774066 0 0 0 -20.94524,-5.77344 20.946051,5.774066 0 0 0 -7.13297,0.34961 22.43441,9.9727077 0 0 0 -18.757814,-4.52539 z" />
    <path
       id="use2-2"
       style="fill:#b2924b;fill-opacity:1;stroke-width:0.11936;stroke-linecap:round;-inkscape-stroke:none"
       inkscape:label="dirt_proto"
       d="m 239.18404,148.83655 a 17.661681,8.4352383 0 0 1 15.44146,4.36134 18.890408,4.0848896 0 0 1 2.60364,-0.041 18.890408,4.0848896 0 0 1 18.89044,4.08592 h -19.27816 a 17.661681,8.4352383 0 0 1 0.005,0.0293 h -35.32377 a 17.661681,8.4352383 0 0 1 0.002,-0.0293 h -27.06428 -12.32613 a 18.66179,3.6036645 0 0 1 15.13941,-3.5332 20.65533,7.0176455 0 0 1 17.84222,-3.48438 20.65533,7.0176455 0 0 1 11.39288,1.17188 17.661681,8.4352383 0 0 1 12.67553,-2.56056 z" />
    <path
       id="use2-2-9"
       style="fill:#b2924b;fill-opacity:1;stroke-width:0.135317;stroke-linecap:round;-inkscape-stroke:none"
       inkscape:label="dirt_proto"
       d="m 239.76721,50.521541 a 23.468133,7.2321753 0 0 0 -19.69605,3.318357 25.100816,3.9511288 0 0 0 -4.28345,-0.0586 25.100816,3.9511288 0 0 0 -25.09992,3.95117 h 25.61658 a 23.468133,7.2321753 0 0 0 -0.003,0.0215 h 46.93469 a 23.468133,7.2321753 0 0 0 -0.003,-0.0215 h 24.73646 a 24.797037,3.9511288 0 0 0 -24.79954,-3.95117 24.797037,3.9511288 0 0 0 -3.72173,0.0508 23.468133,7.2321753 0 0 0 -19.68103,-3.310545 z" />
    <path
       id="use2-2-9-2"
       style="fill:#b2924b;fill-opacity:1;stroke-width:0.128394;stroke-linecap:round;-inkscape-stroke:none"
       inkscape:label="dirt_proto"
       d="M 63.384363,78.5282 A 26.12573,7.2321753 0 0 0 40.778789,82.157107 22.598271,3.9511288 0 0 0 31.259513,81.787966 22.598271,3.9511288 0 0 0 8.6620526,85.739138 H 37.265851 a 26.12573,7.2321753 0 0 0 -0.0054,0.02148 H 89.511002 A 26.12573,7.2321753 0 0 0 63.384363,78.5282 Z" />
  </g>
  <g
     inkscape:groupmode="layer"
     id="layer6"
     inkscape:label="prototype"
     style="display:none">
    <path
       id="path1"
       style="fill:#b2924b;fill-opacity:1;stroke-width:0.195358;stroke-linecap:round;-inkscape-stroke:none"
       d="m -144.17528,78.439461 a 28.826094,7.1709625 0 0 0 -28.82609,7.170962 h 57.65218 a 28.826094,7.1709625 0 0 0 -28.82609,-7.170962 z"
       inkscape:label="dirt_proto" />
  </g>
</svg>
