<?xml version="1.0" encoding="UTF-8" standalone="no"?>
<!-- Created with Inkscape (http://www.inkscape.org/) -->

<svg
   width="300"
   height="300"
   viewBox="0 0 300.00001 300.00001"
   version="1.1"
   id="svg5"
   inkscape:version="1.3.2 (091e20e, 2023-11-25, custom)"
   sodipodi:docname="tile_dirt_01.svg"
   xmlns:inkscape="http://www.inkscape.org/namespaces/inkscape"
   xmlns:sodipodi="http://sodipodi.sourceforge.net/DTD/sodipodi-0.dtd"
   xmlns:xlink="http://www.w3.org/1999/xlink"
   xmlns="http://www.w3.org/2000/svg"
   xmlns:svg="http://www.w3.org/2000/svg">
  <sodipodi:namedview
     id="namedview7"
     pagecolor="#ffffff"
     bordercolor="#cccccc"
     borderopacity="1"
     inkscape:pageshadow="0"
     inkscape:pageopacity="1"
     inkscape:pagecheckerboard="0"
     inkscape:document-units="px"
     showgrid="false"
     units="px"
     inkscape:zoom="2.9387774"
     inkscape:cx="134.92005"
     inkscape:cy="144.7881"
     inkscape:window-width="2304"
     inkscape:window-height="1262"
     inkscape:window-x="-11"
     inkscape:window-y="-11"
     inkscape:window-maximized="1"
     inkscape:current-layer="layer7"
     inkscape:showpageshadow="0"
     inkscape:deskcolor="#d1d1d1" />
  <defs
     id="defs2">
    <linearGradient
       inkscape:collect="always"
       id="linearGradient6775">
      <stop
         style="stop-color:#000000;stop-opacity:0.40000001"
         offset="0"
         id="stop6771" />
      <stop
         style="stop-color:#000000;stop-opacity:0.30000001"
         offset="0.36134452"
         id="stop7037" />
      <stop
         style="stop-color:#000000;stop-opacity:0"
         offset="1"
         id="stop6773" />
    </linearGradient>
    <radialGradient
       inkscape:collect="always"
       xlink:href="#linearGradient6775"
       id="radialGradient6779-9"
       cx="-303.15753"
       cy="335.33987"
       fx="-303.15753"
       fy="335.33987"
       r="76.593941"
       gradientUnits="userSpaceOnUse"
       gradientTransform="translate(-43.124321,-170.56634)" />
    <radialGradient
       inkscape:collect="always"
       xlink:href="#linearGradient6775"
       id="radialGradient7162"
       cx="-303.15753"
       cy="335.33987"
       fx="-303.15753"
       fy="335.33987"
       r="76.593941"
       gradientUnits="userSpaceOnUse"
       gradientTransform="translate(-43.124321,-170.56634)" />
    <radialGradient
       inkscape:collect="always"
       xlink:href="#linearGradient6775"
       id="radialGradient6779-2"
       cx="-303.15753"
       cy="335.33987"
       fx="-303.15753"
       fy="335.33987"
       r="76.593941"
       gradientUnits="userSpaceOnUse"
       gradientTransform="translate(-43.124321,-170.56634)" />
    <radialGradient
       inkscape:collect="always"
       xlink:href="#linearGradient6775"
       id="radialGradient7162-9"
       cx="-303.15753"
       cy="335.33987"
       fx="-303.15753"
       fy="335.33987"
       r="76.593941"
       gradientUnits="userSpaceOnUse"
       gradientTransform="translate(-43.124321,-170.56634)" />
    <radialGradient
       inkscape:collect="always"
       xlink:href="#linearGradient6775"
       id="radialGradient6779-5"
       cx="-303.15753"
       cy="335.33987"
       fx="-303.15753"
       fy="335.33987"
       r="76.593941"
       gradientUnits="userSpaceOnUse"
       gradientTransform="translate(-43.124321,-170.56634)" />
    <radialGradient
       inkscape:collect="always"
       xlink:href="#linearGradient6775"
       id="radialGradient7340"
       cx="-303.15753"
       cy="335.33987"
       fx="-303.15753"
       fy="335.33987"
       r="76.593941"
       gradientUnits="userSpaceOnUse"
       gradientTransform="translate(-43.124321,-170.56634)" />
    <radialGradient
       inkscape:collect="always"
       xlink:href="#linearGradient6775"
       id="radialGradient7350"
       cx="-303.15753"
       cy="335.33987"
       fx="-303.15753"
       fy="335.33987"
       r="76.593941"
       gradientUnits="userSpaceOnUse"
       gradientTransform="translate(-43.124321,-170.56634)" />
    <radialGradient
       inkscape:collect="always"
       xlink:href="#linearGradient6775"
       id="radialGradient6779-20"
       cx="-303.15753"
       cy="335.33987"
       fx="-303.15753"
       fy="335.33987"
       r="76.593941"
       gradientUnits="userSpaceOnUse"
       gradientTransform="translate(-43.124321,-170.56634)" />
    <radialGradient
       inkscape:collect="always"
       xlink:href="#linearGradient6775"
       id="radialGradient7512"
       cx="-303.15753"
       cy="335.33987"
       fx="-303.15753"
       fy="335.33987"
       r="76.593941"
       gradientUnits="userSpaceOnUse"
       gradientTransform="translate(-43.124321,-170.56634)" />
  </defs>
  <g
     inkscape:groupmode="layer"
     id="layer1"
     inkscape:label="BG_dirt"
     style="display:none">
    <rect
       style="fill:#c59a57;fill-opacity:1;stroke-width:1.05709;stroke-linecap:round;-inkscape-stroke:none"
       id="rect1"
       width="300"
       height="300"
       x="0"
       y="0" />
  </g>
  <g
     inkscape:groupmode="layer"
     id="layer7"
     inkscape:label="gress"
     style="display:inline">
    <path
       id="use4082-81"
       style="display:inline;fill:#ccac59;fill-opacity:1;stroke-width:0.0970714;stroke-linecap:round;-inkscape-stroke:none;stop-color:#000000"
       inkscape:label="GressLight"
       inkscape:transform-center-x="5.0746119e-06"
       inkscape:transform-center-y="-5.6610046"
       d="m 59.314371,16.129372 4.644205,18.638672 3.357317,-8.466797 3.594748,9.05664 4.409144,-14.884765 4.981369,16.814452 3.022536,-4.929686 3.098503,5.054687 4.903019,-15.568359 4.917254,15.609375 3.086638,-4.980469 3.917666,6.322265 4.08624,-7.007812 6.81197,11.685546 H 100.51865 92.514749 84.513227 76.509334 68.50543 60.503908 52.500011 50.120925 44.498489 42.11702 36.494587 28.49069 20.489168 12.485266 l 6.814358,-11.115233 3.582873,5.845702 4.418648,-9.730468 3.713468,8.173828 4.29043,-11.601563 4.375913,11.83789 3.625613,-7.496093 3.725335,7.699219 4.278558,-10.785156 3.359692,8.464843 z" />
    <path
       id="use4082-0-1"
       style="display:inline;fill:#ccac59;fill-opacity:1;stroke-width:0.0824935;stroke-linecap:round;-inkscape-stroke:none;stop-color:#000000"
       inkscape:label="GressLight"
       inkscape:transform-center-x="5.9946449e-06"
       inkscape:transform-center-y="-5.6610046"
       d="m 215.41563,261.1427 -4.35325,12.45508 -3.79248,-8.92578 -4.74965,11.16992 -3.3985,-4.94531 -3.64744,5.30664 -4.50069,-8.83399 -3.56286,6.99609 -4.58287,-12.91015 -4.67231,13.15429 -3.47584,-6.41015 -6.93716,12.78906 h 13.87433 8.14572 8.14815 2.42196 5.72376 2.42438 5.72376 8.14815 8.14573 8.14813 l -6.93716,-9.98828 -3.63294,5.23242 -4.51278,-8.86328 -3.5411,6.95313 z" />
    <path
       id="use4082-81-5"
       style="display:inline;fill:#9c8e29;fill-opacity:1;stroke-width:0.0903001;stroke-linecap:round;-inkscape-stroke:none;stop-color:#000000"
       inkscape:label="GressDark"
       inkscape:transform-center-x="2.4118694e-06"
       inkscape:transform-center-y="-5.6610046"
       d="m 52.807223,137.36489 4.426575,16.91992 3.199988,-7.68554 3.426296,8.22265 4.202531,-13.51562 4.747931,15.26758 2.880894,-4.47657 2.953313,4.58985 4.67325,-14.13477 4.686829,14.17188 2.941997,-4.52344 3.734074,5.74219 3.894752,-6.36329 6.492767,10.60938 H 97.43959 92.080628 84.451801 76.825239 69.196412 61.567587 53.941024 46.312198 38.683372 31.056809 23.427982 15.80142 8.1725908 l 6.4927652,-10.0918 3.417239,5.3086 4.211586,-8.83594 3.53945,7.42187 4.089377,-10.53515 4.170847,10.75 3.455716,-6.80664 3.550765,6.99023 4.078061,-9.79101 3.202251,7.68554 z" />
    <path
       id="use4082-0-9-3"
       style="display:inline;fill:#9c8e29;fill-opacity:1;stroke-width:0.0694796;stroke-linecap:round;-inkscape-stroke:none;stop-color:#000000"
       inkscape:label="GressDark"
       inkscape:transform-center-x="3.3830335e-06"
       inkscape:transform-center-y="-5.6610046"
       d="m 234.94086,193.31262 -4.279,16.92188 -3.0933,-7.68555 -5.26123,13.0625 -4.7034,-7.56445 -3.30113,5.30664 -4.07336,-8.83399 -3.22456,6.9961 -4.14774,-12.91016 -4.22868,13.1543 -3.1458,-6.41016 -6.27849,12.78906 h 7.37448 5.18249 7.3723 7.37448 7.3723 9.96464 7.37449 7.37449 7.3723 7.37448 7.37449 7.3723 l -6.2763,-8.32812 -3.06267,4.0625 -4.31182,-9.35352 -3.16112,6.85547 -4.21337,-13.80664 -4.28992,14.06055 -3.08238,-6.2793 -3.43238,6.99023 -3.9421,-9.79101 -3.09549,7.68555 z" />
  </g>
  <g
     inkscape:groupmode="layer"
     id="layer2"
     inkscape:label="dirt">
    <path
       id="use2"
       style="fill:#b2924b;fill-opacity:1;stroke-width:0.12334;stroke-linecap:round;-inkscape-stroke:none"
       inkscape:label="dirt_proto"
       d="m 109.76025,278.45703 a 22.983945,8.2207082 0 0 0 -18.035166,3.14844 17.847919,7.2321753 0 0 0 -12.605512,-2.13086 17.847919,7.2321753 0 0 0 -16.245284,4.26758 22.864503,3.6036645 0 0 0 -13.246702,-0.66797 22.864503,3.6036645 0 0 0 -22.864544,3.60351 h 34.512365 a 17.847919,7.2321753 0 0 0 -0.0055,0.0293 H 96.9664 a 17.847919,7.2321753 0 0 0 -0.0055,-0.0293 h 17.40215 a 25.632863,7.0611738 0 0 0 -0.005,0.0293 h 51.26516 a 25.632863,7.0611738 0 0 0 -0.006,-0.0293 h 25.19739 a 22.58779,3.6036645 0 0 0 -22.58897,-3.60351 22.58779,3.6036645 0 0 0 -6.01626,0.13476 25.632863,7.0611738 0 0 0 -22.22062,-3.56445 25.632863,7.0611738 0 0 0 -14.1089,1.17383 22.983945,8.2207082 0 0 0 -16.11978,-2.36133 z" />
    <path
       id="use2-7"
       style="fill:#b2924b;fill-opacity:1;stroke-width:0.121932;stroke-linecap:round;-inkscape-stroke:none"
       inkscape:label="dirt_proto"
       d="M 124.30767,91.931641 A 25.050873,10.189137 0 0 0 103.40217,96.52734 22.462097,7.1257522 0 0 0 89.304299,94.951172 22.462097,7.1257522 0 0 0 75.670402,96.42773 25.983629,8.4352383 0 0 0 56.524815,93.685547 25.983629,8.4352383 0 0 0 32.566165,98.88867 22.345368,3.6036645 0 0 0 22.345408,98.48828 22.345368,3.6036645 0 0 0 0,102.0918 h 30.544945 a 25.983629,8.4352383 0 0 0 -0.0053,0.0293 h 51.967737 a 25.983629,8.4352383 0 0 0 -0.008,-0.0449 h 16.764389 a 25.050873,10.189137 0 0 0 -0.008,0.0449 h 50.103849 a 25.050873,10.189137 0 0 0 -0.005,-0.0293 h 29.98231 a 23.388929,5.7691775 0 0 0 -23.38802,-5.76953 23.388929,5.7691775 0 0 0 -10.17276,0.58398 25.050873,10.189137 0 0 0 -21.46811,-4.974609 z" />
    <path
       id="use2-7-7"
       style="fill:#b2924b;fill-opacity:1;stroke-width:0.114074;stroke-linecap:round;-inkscape-stroke:none"
       inkscape:label="dirt_proto"
       d="m 248.62587,143.95703 a 20.471515,8.8316757 0 0 0 -17.63269,4.37305 28.395419,6.4460837 0 0 0 -20.32135,-1.95899 28.395419,6.4460837 0 0 0 -20.11595,1.91407 34.095251,8.5694278 0 0 0 -29.03616,-4.08204 34.095251,8.5694278 0 0 0 -31.80885,5.49219 19.558123,3.6036645 0 0 0 -9.9728,-0.50976 19.558123,3.6036645 0 0 0 -19.55815,3.60351 h 39.11631 a 19.558123,3.6036645 0 0 0 -0.004,-0.0156 h 42.99527 a 28.395419,6.4460837 0 0 0 -0.0116,0.0449 h 56.79101 a 28.395419,6.4460837 0 0 0 -0.007,-0.0293 h 12.5331 a 21.279593,4.0641408 0 0 0 -0.009,0.0293 h 42.56117 a 21.279593,4.0641408 0 0 0 -21.2806,-4.06445 21.279593,4.0641408 0 0 0 -5.84409,0.16211 20.471515,8.8316757 0 0 0 -18.39354,-4.95899 z" />
    <path
       id="use2-7-2"
       style="fill:#b2924b;fill-opacity:1;stroke-width:0.11639;stroke-linecap:round;-inkscape-stroke:none"
       inkscape:label="dirt_proto"
       d="m 102.66943,207.77539 a 28.277687,9.9727077 0 0 0 -25.250814,5.50391 25.355451,5.3634802 0 0 0 -14.261341,-0.93164 25.355451,5.3634802 0 0 0 -21.69301,2.60546 25.223685,2.9088877 0 0 0 -7.657417,-0.13671 25.223685,2.9088877 0 0 0 -25.223729,2.9082 h 50.447459 a 25.223685,2.9088877 0 0 0 -0.003,-0.0137 h 15.369017 a 28.277687,9.9727077 0 0 0 -0.006,0.0371 h 56.557745 a 28.277687,9.9727077 0 0 0 -0.003,-0.0234 h 30.7591 a 26.401668,5.774066 0 0 0 -26.40062,-5.77344 26.401668,5.774066 0 0 0 -8.99086,0.34961 28.277687,9.9727077 0 0 0 -23.64348,-4.52539 z" />
    <path
       id="use2-2"
       style="fill:#b2924b;fill-opacity:1;stroke-width:0.128938;stroke-linecap:round;-inkscape-stroke:none"
       inkscape:label="dirt_proto"
       d="m 233.42655,244.11914 a 20.609962,8.4352383 0 0 0 -18.01912,4.36133 22.043801,4.0848896 0 0 0 -3.03826,-0.041 22.043801,4.0848896 0 0 0 -22.04385,4.08594 h 22.49629 a 20.609962,8.4352383 0 0 0 -0.005,0.0293 h 41.22041 a 20.609962,8.4352383 0 0 0 -0.003,-0.0293 H 285.61626 300 a 21.77702,3.6036645 0 0 0 -17.66664,-3.5332 24.103343,7.0176455 0 0 0 -20.82064,-3.48438 24.103343,7.0176455 0 0 0 -13.2947,1.17188 20.609962,8.4352383 0 0 0 -14.79147,-2.56055 z" />
    <path
       id="use2-2-9"
       style="fill:#b2924b;fill-opacity:1;stroke-width:0.150667;stroke-linecap:round;-inkscape-stroke:none"
       inkscape:label="dirt_proto"
       d="m 174.86172,57.183594 a 29.094356,7.2321753 0 0 0 -24.41796,3.318359 31.118455,3.9511288 0 0 0 -5.31035,-0.05859 31.118455,3.9511288 0 0 0 -31.11734,3.951172 h 31.75786 a 29.094356,7.2321753 0 0 0 -0.003,0.02148 h 58.18676 a 29.094356,7.2321753 0 0 0 -0.003,-0.02148 h 30.66677 a 30.74185,3.9511288 0 0 0 -30.74495,-3.951172 30.74185,3.9511288 0 0 0 -4.61399,0.05078 29.094356,7.2321753 0 0 0 -24.39932,-3.310547 z" />
    <path
       id="use2-2-9-2"
       style="fill:#b2924b;fill-opacity:1;stroke-width:0.13741;stroke-linecap:round;-inkscape-stroke:none"
       inkscape:label="dirt_proto"
       d="m 270.07552,19.037109 a 29.923451,7.2321753 0 0 0 -25.89159,3.628907 25.883229,3.9511288 0 0 0 -10.90302,-0.369141 25.883229,3.9511288 0 0 0 -25.88231,3.951172 h 32.76174 a 29.923451,7.2321753 0 0 0 -0.006,0.02148 H 300 a 29.923451,7.2321753 0 0 0 -29.92448,-7.232422 z" />
  </g>
  <g
     inkscape:groupmode="layer"
     id="layer6"
     inkscape:label="prototype"
     style="display:none">
    <path
       id="path1"
       style="fill:#b2924b;fill-opacity:1;stroke-width:0.195358;stroke-linecap:round;-inkscape-stroke:none"
       d="m -144.17528,78.439461 a 28.826094,7.1709625 0 0 0 -28.82609,7.170962 h 57.65218 a 28.826094,7.1709625 0 0 0 -28.82609,-7.170962 z"
       inkscape:label="dirt_proto" />
  </g>
</svg>
