<?xml version="1.0" encoding="UTF-8" standalone="no"?>
<!-- Created with Inkscape (http://www.inkscape.org/) -->

<svg
   width="300"
   height="300"
   viewBox="0 0 300.00001 300.00001"
   version="1.1"
   id="svg5"
   inkscape:version="1.1.2 (b8e25be833, 2022-02-05)"
   sodipodi:docname="siteLogo.svg"
   xmlns:inkscape="http://www.inkscape.org/namespaces/inkscape"
   xmlns:sodipodi="http://sodipodi.sourceforge.net/DTD/sodipodi-0.dtd"
   xmlns:xlink="http://www.w3.org/1999/xlink"
   xmlns="http://www.w3.org/2000/svg"
   xmlns:svg="http://www.w3.org/2000/svg">
  <sodipodi:namedview
     id="namedview7"
     pagecolor="#ffffff"
     bordercolor="#cccccc"
     borderopacity="1"
     inkscape:pageshadow="0"
     inkscape:pageopacity="1"
     inkscape:pagecheckerboard="0"
     inkscape:document-units="px"
     showgrid="false"
     units="px"
     inkscape:zoom="1.0985948"
     inkscape:cx="247.13389"
     inkscape:cy="181.1405"
     inkscape:window-width="2304"
     inkscape:window-height="1262"
     inkscape:window-x="-2315"
     inkscape:window-y="-11"
     inkscape:window-maximized="1"
     inkscape:current-layer="layer3" />
  <defs
     id="defs2" />
  <g
     inkscape:groupmode="layer"
     id="layer4"
     inkscape:label="BG"
     style="display:none">
    <rect
       style="fill:#252530;fill-opacity:1;stroke-width:5.77917;stroke-linecap:round;stop-color:#000000"
       id="rect865"
       width="300"
       height="300"
       x="0"
       y="0" />
  </g>
  <g
     inkscape:groupmode="layer"
     id="layer6"
     inkscape:label="BG_2"
     style="display:none">
    <rect
       style="display:inline;fill:#f4d7d7;fill-opacity:1;stroke-width:5.77917;stroke-linecap:round;stop-color:#000000"
       id="rect865-5"
       width="300"
       height="300"
       x="0"
       y="0" />
  </g>
  <g
     inkscape:groupmode="layer"
     id="layer3"
     inkscape:label="Base_A">
    <path
       id="path1711"
       style="fill:#916f6f;fill-opacity:1;stroke:none;stroke-width:2.66249;stroke-linecap:round;stop-color:#000000"
       inkscape:transform-center-x="-8.0364127e-06"
       inkscape:transform-center-y="-40.099076"
       d="M 150,55.917969 50.412109,296.51367 h 32.552735 l 28.904296,-78.40625 h 76.26172 l 28.9043,78.40625 h 32.55273 z m 0,58.750001 29.15039,79.07812 h -58.30078 z" />
  </g>
  <g
     inkscape:label="Base_O"
     inkscape:groupmode="layer"
     id="layer1">
    <g
       id="g35667">
      <g
         id="g1589"
         style="font-variation-settings:normal;opacity:1;vector-effect:none;fill:#e98888;fill-opacity:1;stroke:none;stroke-width:0.784655;stroke-linecap:round;stroke-linejoin:miter;stroke-miterlimit:4;stroke-dasharray:none;stroke-dashoffset:0;stroke-opacity:1;-inkscape-stroke:none;stop-color:#000000;stop-opacity:1"
         transform="matrix(1.0434775,0,0,1.0434775,-6.5216217,-22.521622)">
        <path
           id="path854"
           style="font-variation-settings:normal;vector-effect:none;fill:#e98888;fill-opacity:1;stroke:none;stroke-width:0.754934;stroke-linecap:round;stroke-linejoin:miter;stroke-miterlimit:4;stroke-dasharray:none;stroke-dashoffset:0;stroke-opacity:1;-inkscape-stroke:none;stop-color:#000000;stop-opacity:1"
           d="M 150,39.212463 A 110.78753,110.78753 0 0 0 39.212463,150 110.78753,110.78753 0 0 0 150,260.78753 110.78753,110.78753 0 0 0 260.78753,150 110.78753,110.78753 0 0 0 150,39.212463 Z m 0,10.071594 A 100.71595,100.71595 0 0 1 250.71595,150 100.71595,100.71595 0 0 1 150,250.71595 100.71595,100.71595 0 0 1 49.284057,150 100.71595,100.71595 0 0 1 150,49.284057 Z" />
      </g>
      <rect
         style="fill:#e98888;fill-opacity:1;stroke-width:1.87236;stroke-linecap:round;stop-color:#000000"
         id="rect35305"
         width="220"
         height="8"
         x="40"
         y="130.29903" />
      <rect
         style="fill:#e98888;fill-opacity:1;stroke-width:1.87236;stroke-linecap:round;stop-color:#000000"
         id="rect35305-3"
         width="220"
         height="8"
         x="91.02977"
         y="-15.102264"
         transform="rotate(45)" />
      <rect
         style="fill:#e98888;fill-opacity:1;stroke-width:1.87236;stroke-linecap:round;stop-color:#000000"
         id="rect35305-0"
         width="220"
         height="8"
         x="-98.897736"
         y="197.02977"
         transform="rotate(-45)" />
      <rect
         style="fill:#e98888;fill-opacity:1;stroke-width:1.87236;stroke-linecap:round;stop-color:#000000"
         id="rect35305-35"
         width="220"
         height="8"
         x="24.299026"
         y="-154"
         transform="rotate(90)" />
    </g>
    <circle
       style="fill:#ff5555;fill-opacity:1;stroke:none;stroke-width:0.176935;stroke-linecap:round;stop-color:#000000"
       id="path854-7"
       cx="150"
       cy="134"
       r="25.965469" />
  </g>
  <g
     inkscape:groupmode="layer"
     id="layer2"
     inkscape:label="Cart"
     style="display:inline">
    <g
       id="g4163"
       transform="translate(-63.399191,-11.263816)">
      <rect
         style="fill:#ff6565;fill-opacity:1;stroke:none;stroke-width:2.13732;stroke-linecap:round;stop-color:#000000"
         id="rect2447-0"
         width="57.999008"
         height="57.999531"
         x="-59.090809"
         y="97.867287"
         rx="11.599801"
         ry="10.740654" />
      <path
         id="rect2447-0-2"
         style="fill:#ffffff;fill-opacity:0.5;stroke:none;stroke-width:2.13732;stroke-linecap:round;stop-color:#000000"
         d="m -47.490015,97.866816 c -6.426291,0 -11.599803,4.790334 -11.599803,10.740654 v 4.29627 h 57.999009 v -4.29627 c 0,-5.95032 -5.1735115,-10.740654 -11.599802,-10.740654 z" />
      <rect
         style="fill:#ffffff;fill-opacity:0.2;stroke:none;stroke-width:2.42696;stroke-linecap:round;stop-color:#000000"
         id="rect3974"
         width="39.439327"
         height="27.925699"
         x="-49.81097"
         y="119.34813"
         rx="5.7999005"
         ry="5.370327" />
    </g>
    <use
       x="0"
       y="0"
       xlink:href="#g4163"
       id="use4165-14"
       transform="translate(243.48924,138.39659)"
       width="100%"
       height="100%"
       style="display:inline" />
    <use
       x="0"
       y="0"
       xlink:href="#g4163"
       id="use4165-9"
       transform="translate(243.48924,-81.60341)"
       width="100%"
       height="100%"
       style="display:inline" />
    <use
       x="0"
       y="0"
       xlink:href="#g4163"
       id="use4165-79"
       transform="translate(133.48924,28.396586)"
       width="100%"
       height="100%"
       style="display:inline" />
    <use
       x="0"
       y="0"
       xlink:href="#g4163"
       id="use4165-5"
       transform="translate(353.48924,28.396586)"
       width="100%"
       height="100%"
       style="display:inline" />
    <use
       x="0"
       y="0"
       xlink:href="#g4163"
       id="use4165-79-3"
       transform="translate(165.7076,-49.3852)"
       width="100%"
       height="100%"
       style="display:inline" />
    <use
       x="0"
       y="0"
       xlink:href="#g4163"
       id="use4165-5-8"
       transform="translate(321.27109,106.17829)"
       width="100%"
       height="100%"
       style="display:inline" />
    <use
       x="0"
       y="0"
       xlink:href="#g4163"
       id="use4165-79-3-2"
       transform="translate(165.70745,106.17843)"
       width="100%"
       height="100%"
       style="display:inline" />
    <use
       x="0"
       y="0"
       xlink:href="#g4163"
       id="use4165-5-8-2"
       transform="translate(321.27094,-49.385057)"
       width="100%"
       height="100%"
       style="display:inline" />
  </g>
  <g
     inkscape:groupmode="layer"
     id="layer5"
     inkscape:label="Cart_colored"
     style="display:none">
    <g
       id="use4165-14-5"
       transform="translate(180.09005,127.13277)">
      <rect
         style="fill:#ff5555;fill-opacity:1;stroke:none;stroke-width:1.91482;stroke-linecap:round;stop-color:#000000"
         id="rect4217"
         width="50"
         height="54"
         x="-55.090473"
         y="99.867447"
         rx="10"
         ry="10" />
      <path
         id="path4219"
         style="fill:#ffffff;fill-opacity:0.6;stroke:none;stroke-width:1.91482;stroke-linecap:round;stop-color:#000000"
         d="m -45.089618,99.86701 c -5.54,0 -10,4.46 -10,10 v 4 h 50.0000001 v -4 c 0,-5.54 -4.46,-10 -10.0000001,-10 z" />
      <rect
         style="fill:#ffffff;fill-opacity:0.3;stroke:none;stroke-width:2.17432;stroke-linecap:round;stop-color:#000000"
         id="rect4221"
         width="34"
         height="26"
         x="-47.090473"
         y="119.86701"
         rx="5"
         ry="5" />
    </g>
    <g
       id="use4165-9-4"
       transform="translate(180.09005,-92.867226)">
      <rect
         style="fill:#ff5555;fill-opacity:1;stroke:none;stroke-width:1.91482;stroke-linecap:round;stop-color:#000000"
         id="rect4225"
         width="50"
         height="54"
         x="-55.090473"
         y="99.867447"
         rx="10"
         ry="10" />
      <path
         id="path4227"
         style="fill:#ffffff;fill-opacity:0.6;stroke:none;stroke-width:1.91482;stroke-linecap:round;stop-color:#000000"
         d="m -45.089618,99.86701 c -5.54,0 -10,4.46 -10,10 v 4 h 50.0000001 v -4 c 0,-5.54 -4.46,-10 -10.0000001,-10 z" />
      <rect
         style="fill:#ffffff;fill-opacity:0.3;stroke:none;stroke-width:2.17432;stroke-linecap:round;stop-color:#000000"
         id="rect4229"
         width="34"
         height="26"
         x="-47.090473"
         y="119.86701"
         rx="5"
         ry="5" />
    </g>
    <g
       id="use4165-79-9"
       transform="translate(70.090049,17.13277)">
      <rect
         style="fill:#ff5555;fill-opacity:1;stroke:none;stroke-width:1.91482;stroke-linecap:round;stop-color:#000000"
         id="rect4233"
         width="50"
         height="54"
         x="-55.090473"
         y="99.867447"
         rx="10"
         ry="10" />
      <path
         id="path4235"
         style="fill:#ffffff;fill-opacity:0.6;stroke:none;stroke-width:1.91482;stroke-linecap:round;stop-color:#000000"
         d="m -45.089618,99.86701 c -5.54,0 -10,4.46 -10,10 v 4 h 50.0000001 v -4 c 0,-5.54 -4.46,-10 -10.0000001,-10 z" />
      <rect
         style="fill:#ffffff;fill-opacity:0.3;stroke:none;stroke-width:2.17432;stroke-linecap:round;stop-color:#000000"
         id="rect4237"
         width="34"
         height="26"
         x="-47.090473"
         y="119.86701"
         rx="5"
         ry="5" />
    </g>
    <g
       id="use4165-5-5"
       transform="translate(290.09005,17.13277)">
      <rect
         style="fill:#ffdd55;fill-opacity:1;stroke:none;stroke-width:1.91482;stroke-linecap:round;stop-color:#000000"
         id="rect4241"
         width="50"
         height="54"
         x="-55.090473"
         y="99.867447"
         rx="10"
         ry="10" />
      <path
         id="path4243"
         style="fill:#ffffff;fill-opacity:0.6;stroke:none;stroke-width:1.91482;stroke-linecap:round;stop-color:#000000"
         d="m -45.089618,99.86701 c -5.54,0 -10,4.46 -10,10 v 4 h 50.0000001 v -4 c 0,-5.54 -4.46,-10 -10.0000001,-10 z" />
      <rect
         style="fill:#ffffff;fill-opacity:0.3;stroke:none;stroke-width:2.17432;stroke-linecap:round;stop-color:#000000"
         id="rect4245"
         width="34"
         height="26"
         x="-47.090473"
         y="119.86701"
         rx="5"
         ry="5" />
    </g>
    <g
       id="use4165-79-3-6"
       transform="translate(102.30841,-60.649016)">
      <rect
         style="fill:#ff5555;fill-opacity:1;stroke:none;stroke-width:1.91482;stroke-linecap:round;stop-color:#000000"
         id="rect4249"
         width="50"
         height="54"
         x="-55.090473"
         y="99.867447"
         rx="10"
         ry="10" />
      <path
         id="path4251"
         style="fill:#ffffff;fill-opacity:0.6;stroke:none;stroke-width:1.91482;stroke-linecap:round;stop-color:#000000"
         d="m -45.089618,99.86701 c -5.54,0 -10,4.46 -10,10 v 4 h 50.0000001 v -4 c 0,-5.54 -4.46,-10 -10.0000001,-10 z" />
      <rect
         style="fill:#ffffff;fill-opacity:0.3;stroke:none;stroke-width:2.17432;stroke-linecap:round;stop-color:#000000"
         id="rect4253"
         width="34"
         height="26"
         x="-47.090473"
         y="119.86701"
         rx="5"
         ry="5" />
    </g>
    <g
       id="use4165-5-8-1"
       transform="translate(257.8719,94.914474)">
      <rect
         style="fill:#ff5555;fill-opacity:1;stroke:none;stroke-width:1.91482;stroke-linecap:round;stop-color:#000000"
         id="rect4257"
         width="50"
         height="54"
         x="-55.090473"
         y="99.867447"
         rx="10"
         ry="10" />
      <path
         id="path4259"
         style="fill:#ffffff;fill-opacity:0.6;stroke:none;stroke-width:1.91482;stroke-linecap:round;stop-color:#000000"
         d="m -45.089618,99.86701 c -5.54,0 -10,4.46 -10,10 v 4 h 50.0000001 v -4 c 0,-5.54 -4.46,-10 -10.0000001,-10 z" />
      <rect
         style="fill:#ffffff;fill-opacity:0.3;stroke:none;stroke-width:2.17432;stroke-linecap:round;stop-color:#000000"
         id="rect4261"
         width="34"
         height="26"
         x="-47.090473"
         y="119.86701"
         rx="5"
         ry="5" />
    </g>
    <g
       id="use4165-79-3-2-2"
       transform="translate(102.30826,94.914614)">
      <rect
         style="fill:#ff5555;fill-opacity:1;stroke:none;stroke-width:1.91482;stroke-linecap:round;stop-color:#000000"
         id="rect4265"
         width="50"
         height="54"
         x="-55.090473"
         y="99.867447"
         rx="10"
         ry="10" />
      <path
         id="path4267"
         style="fill:#ffffff;fill-opacity:0.6;stroke:none;stroke-width:1.91482;stroke-linecap:round;stop-color:#000000"
         d="m -45.089618,99.86701 c -5.54,0 -10,4.46 -10,10 v 4 h 50.0000001 v -4 c 0,-5.54 -4.46,-10 -10.0000001,-10 z" />
      <rect
         style="fill:#ffffff;fill-opacity:0.3;stroke:none;stroke-width:2.17432;stroke-linecap:round;stop-color:#000000"
         id="rect4269"
         width="34"
         height="26"
         x="-47.090473"
         y="119.86701"
         rx="5"
         ry="5" />
    </g>
    <g
       id="use4165-5-8-2-6"
       transform="translate(257.87175,-60.648873)">
      <rect
         style="fill:#ff5555;fill-opacity:1;stroke:none;stroke-width:1.91482;stroke-linecap:round;stop-color:#000000"
         id="rect4273"
         width="50"
         height="54"
         x="-55.090473"
         y="99.867447"
         rx="10"
         ry="10" />
      <path
         id="path4275"
         style="fill:#ffffff;fill-opacity:0.6;stroke:none;stroke-width:1.91482;stroke-linecap:round;stop-color:#000000"
         d="m -45.089618,99.86701 c -5.54,0 -10,4.46 -10,10 v 4 h 50.0000001 v -4 c 0,-5.54 -4.46,-10 -10.0000001,-10 z" />
      <rect
         style="fill:#ffffff;fill-opacity:0.3;stroke:none;stroke-width:2.17432;stroke-linecap:round;stop-color:#000000"
         id="rect4277"
         width="34"
         height="26"
         x="-47.090473"
         y="119.86701"
         rx="5"
         ry="5" />
    </g>
  </g>
</svg>
