<?xml version="1.0" encoding="UTF-8" standalone="no"?>
<svg
   aria-hidden="true"
   role="img"
   class="iconify iconify--logos"
   width="300"
   height="300"
   preserveAspectRatio="xMidYMid"
   viewBox="0 0 300 300"
   version="1.1"
   id="svg1"
   sodipodi:docname="reactCrystal.svg"
   inkscape:version="1.3.2 (091e20e, 2023-11-25, custom)"
   xmlns:xlink="http://www.w3.org/1999/xlink"
   xmlns:inkscape="http://www.inkscape.org/namespaces/inkscape"
   xmlns:sodipodi="http://sodipodi.sourceforge.net/DTD/sodipodi-0.dtd"
   xmlns="http://www.w3.org/2000/svg"
   xmlns:svg="http://www.w3.org/2000/svg">
   <sodipodi:namedview
      id="namedview1"
      pagecolor="#ffffff"
      bordercolor="#cccccc"
      borderopacity="1"
      inkscape:showpageshadow="0"
      inkscape:pageopacity="1"
      inkscape:pagecheckerboard="0"
      inkscape:deskcolor="#d1d1d1"
      inkscape:zoom="1.8457031"
      inkscape:cx="110.25608"
      inkscape:cy="147.64021"
      inkscape:window-width="2304"
      inkscape:window-height="1202"
      inkscape:window-x="-11"
      inkscape:window-y="-11"
      inkscape:window-maximized="1"
      inkscape:current-layer="svg1" />

   <defs>
      <g
         id="reactCrystal:crystal"
         transform="translate(0,-20)">
         <path
            sodipodi:type="star"
            style="fill:#c7f3ff;stroke-width:0;stroke-linecap:round;stroke-linejoin:round"
            id="path2"
            inkscape:flatsided="true"
            sodipodi:sides="6"
            sodipodi:cx="-161.2541"
            sodipodi:cy="-58.77486"
            sodipodi:r1="108.6434"
            sodipodi:r2="94.087944"
            sodipodi:arg1="0.52359878"
            sodipodi:arg2="1.0471976"
            inkscape:rounded="0"
            inkscape:randomized="0"
            d="m -67.166159,-4.4531589 -94.087951,54.3217009 -94.08794,-54.3217017 0,-108.6434003 94.08795,-54.3217 94.087942,54.3217 z"
            transform="matrix(1.0628354,0,0,1.0628354,321.38657,197.93806)" />
         <path
            fill="#00d8ff"
            d="m 210.85985,105.9122 a 126.53342,126.53342 0 0 0 -6.07986,-1.91619 c 0.3431,-1.4019 0.6589,-2.78684 0.93928,-4.147434 4.60269,-22.34276 1.59375,-40.34254 -8.68372,-46.26893 -9.85396,-5.68142 -25.96928,0.24275 -42.24471,14.40721 a 126.34157,126.34157 0 0 0 -4.70377,4.31493 115.00529,115.00529 0 0 0 -3.12921,-2.89015 c -17.05756,-15.14505 -34.15495,-21.528167 -44.42135,-15.58481 -9.845101,5.69913 -12.760336,22.62018 -8.616586,43.79492 a 126.15269,126.15269 0 0 0 1.396008,6.256954 c -2.420139,0.68767 -4.755426,1.41962 -6.990364,2.19878 -19.998611,6.97266 -32.770009,17.89944 -32.770009,29.23351 0,11.70594 13.710677,23.4473 34.540103,30.56679 a 107.37153,107.37153 0 0 0 5.106642,1.59744 123.56505,123.56505 0 0 0 -1.483074,6.74245 c -3.950434,20.80729 -0.865494,37.32843 8.95304,42.99141 10.14097,5.84818 27.16163,-0.16233 43.73441,-14.64996 a 107.40621,107.40621 0 0 0 3.94159,-3.63242 124.00555,124.00555 0 0 0 5.1059,4.65877 c 16.05407,13.81397 31.90893,19.3921 41.71788,13.71362 10.13138,-5.86514 13.42439,-23.61332 9.14931,-45.20642 a 106.99965,106.99965 0 0 0 -1.1326,-5.04836 c 1.19531,-0.35416 2.36849,-0.71865 3.51216,-1.09791 21.65433,-7.17409 35.74352,-18.77304 35.74352,-30.63541 0,-11.37539 -13.18385,-22.37596 -33.58459,-29.39879 z m -4.69639,52.37535 c -1.033,0.34162 -2.09254,0.67144 -3.17275,0.9924 -2.39062,-7.5681 -5.61649,-15.61506 -9.56471,-23.92986 3.76745,-8.11631 6.86936,-16.06072 9.19284,-23.57938 1.93242,0.55929 3.80729,1.14883 5.61502,1.77083 17.4796,6.01789 28.14149,14.91411 28.14149,21.76945 0,7.30173 -11.51484,16.78086 -30.21189,22.97656 z m -7.75773,15.3723 c 1.89037,9.54775 2.15968,18.18056 0.90756,24.92965 -1.12449,6.06437 -3.38673,10.10703 -6.18465,11.7266 -5.95221,3.44576 -18.68228,-1.03298 -32.41141,-12.84739 a 115.63984,115.63984 0 0 1 -4.74953,-4.33116 c 5.32284,-5.82088 10.64198,-12.58768 15.83347,-20.10339 9.1316,-0.81016 17.75851,-2.13533 25.5819,-3.94379 a 98.99696,98.99696 0 0 1 1.02266,4.56948 z m -78.45382,36.06081 c -5.81571,2.05343 -10.44791,2.11246 -13.24804,0.49805 -5.95812,-3.43615 -8.435077,-16.70191 -5.05647,-34.49583 a 115.78519,115.78519 0 0 1 1.37903,-6.27097 c 7.73707,1.71181 16.30126,2.94254 25.45426,3.68482 5.22691,7.35411 10.69951,14.11353 16.21492,20.03254 a 99.364409,99.364409 0 0 1 -3.59848,3.31442 c -7.32903,6.40598 -14.67282,10.95112 -21.14522,13.23697 z M 92.706166,158.24254 c -9.210547,-3.14839 -16.817013,-7.23976 -22.030642,-11.70447 -4.685329,-4.01168 -7.05013,-7.99531 -7.05013,-11.22708 0,-6.87821 10.253862,-15.65122 27.356424,-21.61376 2.075563,-0.72309 4.247785,-1.4056 6.501909,-2.04605 2.364062,7.68837 5.464493,15.72721 9.206123,23.85607 -3.79032,8.24914 -6.935026,16.41637 -9.321966,24.19549 a 99.401301,99.401301 0 0 1 -4.661718,-1.4602 z m 9.133074,-62.171004 c -3.549785,-18.14145 -1.19236,-31.82631 4.74066,-35.26098 6.31893,-3.65825 20.29228,1.55759 35.02045,14.63519 a 106.48463,106.48463 0 0 1 2.83407,2.61567 c -5.48811,5.89319 -10.91055,12.60243 -16.09097,19.91302 -8.88369,0.82344 -17.38737,2.145664 -25.20559,3.917244 a 118.3079,118.3079 0 0 1 -1.29862,-5.819414 z m 81.47825,20.119614 a 256.62325,256.62325 0 0 0 -5.74414,-9.44665 c 6.02674,0.76219 11.80113,1.77378 17.22357,3.01041 -1.6277,5.21806 -3.65677,10.67296 -6.04519,16.26584 a 281.23121,281.23121 0 0 0 -5.43424,-9.8296 z M 150.09075,83.828436 c 3.72171,4.03233 7.44931,8.53394 11.11567,13.41849 a 237.61632,237.61632 0 0 0 -22.32504,-0.004 c 3.67005,-4.83954 7.42939,-9.33525 11.20937,-13.41407 z m -33.43996,32.418054 a 238.44787,238.44787 0 0 0 -5.33243,9.76762 c -2.34931,-5.57296 -4.35993,-11.05295 -6.00165,-16.34479 5.38924,-1.20564 11.13633,-2.1914 17.1247,-2.93958 a 237.23558,237.23558 0 0 0 -5.79062,9.51601 z m 5.96254,48.2198 c -6.18685,-0.69063 -12.02027,-1.62549 -17.40803,-2.79867 1.66753,-5.38628 3.72244,-10.98285 6.12265,-16.67534 a 236.98693,236.98693 0 0 0 5.35456,9.77352 c 1.91398,3.30556 3.89583,6.54323 5.93082,9.70049 z m 27.70026,22.89539 c -3.825,-4.12604 -7.63968,-8.69111 -11.36507,-13.60074 3.61693,0.14167 7.30396,0.21398 11.05148,0.21398 3.85009,0 7.65591,-0.0864 11.40195,-0.25308 -3.67817,4.99817 -7.39175,9.56988 -11.08836,13.63984 z m 38.51415,-42.66011 c 2.52491,5.75521 4.65286,11.32226 6.34253,16.61632 -5.4763,1.2499 -11.38941,2.25634 -17.6198,3.00377 a 282.16531,282.16531 0 0 0 5.79875,-9.61119 256.33033,256.33033 0 0 0 5.47852,-10.0089 z m -12.46815,5.9773 a 264.56028,264.56028 0 0 1 -9.0615,14.62044 A 243.04687,243.04687 0 0 1 150,165.90656 c -5.87843,0 -11.596,-0.18299 -17.10182,-0.5401 a 228.88168,228.88168 0 0 1 -9.23268,-14.64332 h 7.4e-4 a 226.82162,226.82162 0 0 1 -8.05952,-15.21958 228.93776,228.93776 0 0 1 8.03517,-15.22695 l -7.5e-4,7.4e-4 a 226.75373,226.75373 0 0 1 9.1589,-14.5806 c 5.61723,-0.425 11.37761,-0.64635 17.19923,-0.64635 H 150 c 5.84818,0 11.61593,0.22357 17.23168,0.65152 a 243.01514,243.01514 0 0 1 9.10135,14.5319 264.51011,264.51011 0 0 1 8.14289,15.15538 243.1,243.1 0 0 1 -8.11633,15.28967 z m 16.64584,-90.108854 c 6.32482,3.64791 8.78481,18.35837 4.81076,37.64939 -0.25382,1.23073 -0.53863,2.484334 -0.84853,3.755644 -7.83741,-1.8092 -16.347,-3.154304 -25.25651,-3.990284 -5.19001,-7.39101 -10.56818,-14.11059 -15.96701,-19.92777 a 118.63772,118.63772 0 0 1 4.34445,-3.98438 c 13.94531,-12.13537 26.97864,-16.92695 32.91684,-13.5026 z M 150,118.4438 c 9.31532,0 16.86719,7.55187 16.86719,16.86719 0,9.31532 -7.55187,16.86718 -16.86719,16.86718 -9.31532,0 -16.86719,-7.55186 -16.86719,-16.86718 0,-9.31532 7.55187,-16.86719 16.86719,-16.86719 z"
            id="reactCrystal"
            style="stroke-width:0" />
         <path
            id="path15"
            style="opacity:1;fill:#000000;fill-opacity:0.1;stroke-width:3;stroke-linecap:round;stroke-linejoin:round"
            d="M 150,20.000004 250,77.735031 150,250.94011 49.999999,193.20508 Z"
            sodipodi:nodetypes="ccccc" />
         <path
            id="path16"
            style="opacity:1;fill:#ffffff;fill-opacity:0.25;stroke-width:3;stroke-linecap:round;stroke-linejoin:round"
            d="M 50,77.73503 150,20.000004 250,193.20509 150,250.94011 Z"
            sodipodi:nodetypes="ccccc" />
      </g>
   </defs>
   <rect
      visibility="hidden"
      style="opacity:1;fill:#999999;fill-opacity:1;stroke:none;stroke-width:5;stroke-linecap:round"
      id="reactCrystal:background"
      width="300"
      height="300"
      x="0"
      y="0" />
   <g
      transform="scale(1 0.5) translate(0 300)"
      id="g2">
      <g
         transform="translate(150 220)"
         id="g1">
         <circle
            style="opacity:1;fill:#000000;fill-opacity:0.08;stroke:none"
            id="reactCrystal:shadow"
            cx="0"
            cy="0"
            r="80" />
         <animateTransform
            attributeName="transform"
            type="scale"
            additive="sum"
            values="1 1;0.8 0.8;1 1"
            dur="3s"
            repeatCount="indefinite" />
      </g>
   </g>
   <use
      x="0"
      y="0"
      xlink:href="#reactCrystal:crystal"
      id="use2"
      transform="matrix(0.9,0,0,0.9,15,-3.6e-6)"
      style="stroke-width:0">
      <animateTransform
         attributeName="transform"
         type="translate"
         values="1 1;0 6;0 14;0 21;0 26;0 21;0 14;0 6;1 1"
         dur="3s"
         repeatCount="indefinite" />
   </use>
</svg>