<?xml version="1.0" encoding="UTF-8" standalone="no"?>
<svg
   aria-hidden="true"
   role="img"
   class="iconify iconify--logos"
   width="300"
   height="300"
   preserveAspectRatio="xMidYMid"
   viewBox="0 0 300 300"
   version="1.1"
   id="svg1"
   sodipodi:docname="tsCrystal.svg"
   inkscape:version="1.3.2 (091e20e, 2023-11-25, custom)"
   xmlns:inkscape="http://www.inkscape.org/namespaces/inkscape"
   xmlns:sodipodi="http://sodipodi.sourceforge.net/DTD/sodipodi-0.dtd"
   xmlns:xlink="http://www.w3.org/1999/xlink"
   xmlns="http://www.w3.org/2000/svg"
   xmlns:svg="http://www.w3.org/2000/svg">
   <sodipodi:namedview
      id="namedview1"
      pagecolor="#ffffff"
      bordercolor="#cccccc"
      borderopacity="1"
      inkscape:showpageshadow="0"
      inkscape:pageopacity="1"
      inkscape:pagecheckerboard="0"
      inkscape:deskcolor="#d1d1d1"
      inkscape:zoom="1.8457031"
      inkscape:cx="127.05185"
      inkscape:cy="121.09207"
      inkscape:window-width="2304"
      inkscape:window-height="1202"
      inkscape:window-x="-11"
      inkscape:window-y="-11"
      inkscape:window-maximized="1"
      inkscape:current-layer="svg1" />
   <defs>
      <g
         id="tsCrystal:crystal"
         transform="translate(0,-20)"
         style="display:inline">
         <path
            id="rect2-6"
            style="fill:#8cb5e3;fill-opacity:1;stroke-width:0.332031"
            d="m 214.37109,40.449219 -136.796871,0.04297 c -9.197256,0.0029 -16.598613,7.408213 -16.595703,16.605469 l 0.04297,136.796872 c 0.0018,5.61698 2.773435,10.55279 7.019531,13.55274 C 66.131423,204.74287 65,201.4459 65,197.86914 V 61.072265 C 65,51.875009 72.404306,44.470704 81.601562,44.470703 H 218.39844 c 3.5661,0 6.85478,1.122272 9.55469,3.021485 -3.00036,-4.262408 -7.95088,-7.044751 -13.58204,-7.042969 z" />
         <g
            id="g3"
            transform="matrix(0.33203125,0,0,0.33203125,64.999999,44.470058)">
            <rect
               fill="#3178c6"
               height="512"
               rx="50"
               width="512"
               id="rect1"
               x="0"
               y="0" />
            <rect
               fill="#3178c6"
               height="512"
               rx="50"
               width="512"
               id="rect2"
               x="0"
               y="0" />
            <path
               clip-rule="evenodd"
               d="m 316.939,407.424 v 50.061 c 8.138,4.172 17.763,7.3 28.875,9.386 11.112,2.086 22.823,3.129 35.135,3.129 11.999,0 23.397,-1.147 34.196,-3.442 10.799,-2.294 20.268,-6.075 28.406,-11.342 8.138,-5.266 14.581,-12.15 19.328,-20.65 4.747,-8.5 7.121,-19.007 7.121,-31.522 0,-9.074 -1.356,-17.026 -4.069,-23.857 -2.713,-6.831 -6.625,-12.906 -11.738,-18.225 -5.112,-5.319 -11.242,-10.091 -18.389,-14.315 -7.147,-4.224 -15.207,-8.213 -24.18,-11.967 -6.573,-2.712 -12.468,-5.345 -17.685,-7.9 -5.217,-2.556 -9.651,-5.163 -13.303,-7.822 -3.652,-2.66 -6.469,-5.476 -8.451,-8.448 -1.982,-2.973 -2.974,-6.336 -2.974,-10.091 0,-3.441 0.887,-6.544 2.661,-9.308 1.774,-2.764 4.278,-5.136 7.512,-7.118 3.235,-1.981 7.199,-3.52 11.894,-4.615 4.696,-1.095 9.912,-1.642 15.651,-1.642 4.173,0 8.581,0.313 13.224,0.938 4.643,0.626 9.312,1.591 14.008,2.894 4.695,1.304 9.259,2.947 13.694,4.928 4.434,1.982 8.529,4.276 12.285,6.884 v -46.776 c -7.616,-2.92 -15.937,-5.084 -24.962,-6.492 -9.025,-1.408 -19.381,-2.112 -31.066,-2.112 -11.895,0 -23.163,1.278 -33.805,3.833 -10.642,2.555 -20.006,6.544 -28.093,11.967 -8.086,5.424 -14.476,12.333 -19.171,20.729 -4.695,8.395 -7.043,18.433 -7.043,30.114 0,14.914 4.304,27.638 12.912,38.172 8.607,10.533 21.675,19.45 39.204,26.751 6.886,2.816 13.303,5.579 19.25,8.291 5.947,2.712 11.086,5.528 15.415,8.448 4.33,2.92 7.747,6.101 10.252,9.543 2.504,3.441 3.756,7.352 3.756,11.733 0,3.233 -0.783,6.231 -2.348,8.995 -1.565,2.764 -3.939,5.162 -7.121,7.196 -3.182,2.034 -7.147,3.624 -11.894,4.771 -4.748,1.148 -10.303,1.721 -16.668,1.721 -10.851,0 -21.597,-1.903 -32.24,-5.71 -10.642,-3.806 -20.502,-9.516 -29.579,-17.13 z M 232.78,284.082 H 297 V 243 H 118 v 41.082 h 63.906 V 467 h 50.874 z"
               fill="#ffffff"
               fill-rule="evenodd"
               id="path3" />
         </g>
         <path
            id="path16"
            style="opacity:1;fill:#ffffff;fill-opacity:0.15;stroke-width:3.05905;stroke-linecap:round;stroke-linejoin:round"
            d="m 158.12528,44.470058 h 53.78454 L 170.80636,214.47006 H 93.98269 Z"
            sodipodi:nodetypes="ccccc" />
      </g>
   </defs>
   <rect
      visibility="hidden"
      style="display:inline;opacity:1;fill:#999999;fill-opacity:1;stroke:none;stroke-width:5;stroke-linecap:round"
      id="tsCrystal:background"
      width="300"
      height="300"
      x="0"
      y="0" />
   <g
      transform="matrix(1,0,0,0.5,0,150)"
      id="g2"
      style="display:inline">
      <g
         transform="translate(150,170)"
         id="g1">
         <circle
            style="opacity:1;fill:#000000;fill-opacity:0.08;stroke:none"
            id="tsCrystal:shadow"
            cx="0"
            cy="0"
            r="90" />
         <animateTransform
            attributeName="transform"
            type="scale"
            additive="sum"
            values="1 1;0.85 0.85;1 1"
            dur="3s"
            repeatCount="indefinite" />
      </g>
   </g>

   <use
      x="0"
      y="0"
      xlink:href="#tsCrystal:crystal">
      <animateTransform
         attributeName="transform"
         type="translate"
         values="1 1;0 6;0 14;0 21;0 26;0 21;0 14;0 6;1 1"
         dur="3s"
         repeatCount="indefinite" />
   </use>
</svg>