<?xml version="1.0" encoding="UTF-8" standalone="no"?>
<!-- Created with Inkscape (http://www.inkscape.org/) -->

<svg
   width="300"
   height="300"
   viewBox="0 0 300.00001 300.00001"
   version="1.1"
   id="svg5"
   inkscape:version="1.3.2 (091e20e, 2023-11-25, custom)"
   sodipodi:docname="andrash-exit-full-screen.svg"
   xmlns:inkscape="http://www.inkscape.org/namespaces/inkscape"
   xmlns:sodipodi="http://sodipodi.sourceforge.net/DTD/sodipodi-0.dtd"
   xmlns="http://www.w3.org/2000/svg"
   xmlns:svg="http://www.w3.org/2000/svg">
  <sodipodi:namedview
     id="namedview7"
     pagecolor="#ffffff"
     bordercolor="#cccccc"
     borderopacity="1"
     inkscape:pageshadow="0"
     inkscape:pageopacity="1"
     inkscape:pagecheckerboard="0"
     inkscape:document-units="px"
     showgrid="false"
     units="px"
     inkscape:showpageshadow="0"
     inkscape:deskcolor="#d1d1d1"
     inkscape:zoom="1.7984082"
     inkscape:cx="66.725674"
     inkscape:cy="124.27657"
     inkscape:window-width="1920"
     inkscape:window-height="1001"
     inkscape:window-x="-9"
     inkscape:window-y="-9"
     inkscape:window-maximized="1"
     inkscape:current-layer="layer1" />
  <defs
     id="defs2" />
  <g
     inkscape:label="圖層 1"
     inkscape:groupmode="layer"
     id="layer1">
    <rect
       style="fill:#666666;fill-opacity:1;stroke-width:0;stroke-linecap:round;stroke-linejoin:round"
       id="rect2"
       width="262"
       height="240"
       x="19"
       y="30"
       rx="40"
       ry="40" />
    <path
       style="fill:#b3b3b3;fill-opacity:1;stroke:none;stroke-width:0;stroke-linecap:round;stroke-linejoin:round;stroke-dasharray:none"
       d="m 241,160 v 60 c 0,5.53997 -4.46003,10 -10,10 h -65 v 20 h 70 c 13.84997,0 25,-11.15003 25,-25 v -65 z"
       id="path4" />
    <path
       style="fill:#b3b3b3;fill-opacity:1;stroke:none;stroke-width:0;stroke-linecap:round;stroke-linejoin:round;stroke-dasharray:none"
       d="m 39,160 v 65 c 0,13.84997 11.15004,25 25,25 h 70 V 230 H 69 c -5.53998,0 -10,-4.46003 -10,-10 v -60 z"
       id="path3" />
    <path
       style="fill:#b3b3b3;fill-opacity:1;stroke:none;stroke-width:0;stroke-linecap:round;stroke-linejoin:round;stroke-dasharray:none"
       d="m 166,50 v 20 h 65 c 5.53997,0 10,4.46002 10,10 v 60 h 20 V 75 C 261,61.15004 249.84997,50 236,50 Z"
       id="path2" />
    <path
       style="fill:#b3b3b3;fill-opacity:1;stroke:none;stroke-width:0;stroke-linecap:round;stroke-linejoin:round;stroke-dasharray:none"
       d="M 64,50 C 50.15004,50 39,61.15004 39,75 v 65 H 59 V 80 c 0,-5.53998 4.46002,-10 10,-10 h 65 V 50 Z"
       id="rect1" />
  </g>
</svg>
