<?xml version="1.0" encoding="UTF-8" standalone="no"?>
<!-- Created with Inkscape (http://www.inkscape.org/) -->

<svg
   width="300"
   height="300"
   viewBox="0 0 300.00001 300.00001"
   version="1.1"
   id="svg5"
   inkscape:version="1.3.2 (091e20e, 2023-11-25, custom)"
   sodipodi:docname="andrash-full-screen.svg"
   xmlns:inkscape="http://www.inkscape.org/namespaces/inkscape"
   xmlns:sodipodi="http://sodipodi.sourceforge.net/DTD/sodipodi-0.dtd"
   xmlns="http://www.w3.org/2000/svg"
   xmlns:svg="http://www.w3.org/2000/svg">
  <sodipodi:namedview
     id="namedview7"
     pagecolor="#ffffff"
     bordercolor="#cccccc"
     borderopacity="1"
     inkscape:pageshadow="0"
     inkscape:pageopacity="1"
     inkscape:pagecheckerboard="0"
     inkscape:document-units="px"
     showgrid="false"
     units="px"
     inkscape:showpageshadow="0"
     inkscape:deskcolor="#d1d1d1"
     inkscape:zoom="1.7984082"
     inkscape:cx="66.725674"
     inkscape:cy="159.86359"
     inkscape:window-width="1920"
     inkscape:window-height="1001"
     inkscape:window-x="-9"
     inkscape:window-y="-9"
     inkscape:window-maximized="1"
     inkscape:current-layer="layer1" />
  <defs
     id="defs2" />
  <g
     inkscape:label="圖層 1"
     inkscape:groupmode="layer"
     id="layer1">
    <path
       style="fill:#666666;stroke:none;stroke-width:0;stroke-linecap:round;stroke-linejoin:round;stroke-dasharray:none"
       d="m 261,180 v 60 c 0,5.53997 -4.46003,10 -10,10 h -65 v 20 h 70 c 13.84997,0 25,-11.15003 25,-25 v -65 z"
       id="path4" />
    <path
       style="fill:#666666;stroke:none;stroke-width:0;stroke-linecap:round;stroke-linejoin:round;stroke-dasharray:none"
       d="m 19,180 v 65 c 0,13.84997 11.150042,25 25,25 h 70 V 250 H 49 c -5.539982,0 -10,-4.46003 -10,-10 v -60 z"
       id="path3" />
    <path
       style="fill:#666666;stroke:none;stroke-width:0;stroke-linecap:round;stroke-linejoin:round;stroke-dasharray:none"
       d="m 186,30 v 20 h 65 c 5.53997,0 10,4.460018 10,10 v 60 h 20 V 55 C 281,41.150042 269.84997,30 256,30 Z"
       id="path2" />
    <path
       style="fill:#666666;stroke:none;stroke-width:0;stroke-linecap:round;stroke-linejoin:round;stroke-dasharray:none"
       d="M 44,30 C 30.150042,30 19,41.150042 19,55 v 65 H 39 V 60 c 0,-5.539982 4.460018,-10 10,-10 h 65 V 30 Z"
       id="rect1" />
    <rect
       style="fill:#b3b3b3;stroke-width:0;stroke-linecap:round;stroke-linejoin:round"
       id="rect2"
       width="180"
       height="160"
       x="60"
       y="70"
       ry="10.666666" />
  </g>
</svg>
