<svg width="500" height="500"
    viewBox="0 0 500 500"
    xmlns="http://www.w3.org/2000/svg" fill="#6699ff" stroke="#ffffff" stroke-width="5">
    <defs>
        <clipPath id="ghost_searching:wave_animated">
            <path
                transform="scale(1.5, 1.5) translate(0, -160)"
                stroke="none"
                d="M 0 0 L 0 480 C 31.69189 480 37.26318 450.84961 70 450.84961 C 102.73682 450.84961 108.30808 480 140 480 C 171.69189 480 177.26318 450.84961 210 450.84961 C 242.73682 450.84961 248.30808 480 280 480 C 311.69189 480 317.26318 450.84961 350 450.84961 C 382.73682 450.84961 388.30808 480 420 480 C 451.69189 480 457.26318 450.84961 490 450.84961 C 522.73682 450.84961 528.30808 480 560 480 C 591.69189 480 597.26318 450.84961 630 450.84961 C 662.73682 450.84961 668.30808 480 700 480 L 700 0 L 560 0 L 420 0 L 280 0 L 140 0 L 0 0 z ">
                <animateTransform
                    attributeName="transform"
                    type="translate"
                    from="0 0"
                    to="-140 0"
                    dur="0.6s"
                    repeatCount="indefinite" />
            </path>
        </clipPath>
        <clipPath
            id="ghost_searching:eye_clipper">
            <rect
                width="110"
                height="110"
                x="-55"
                y="-40">
            </rect>
        </clipPath>
        <g
            id="ghost_searching:eye_animated"
            clip-path="url(#ghost_searching:eye_clipper)">
            <circle cx="0" cy="0" r="50" fill="white"
                stroke="#cccccc"
                stroke-width="4px" />
            <circle cx="20" cy="0" r="25" fill="black" stroke="none">
                <animate
                    attributeName="cx"
                    values="0;20;-20;0"
                    dur="0.6s" repeatCount="indefinite" />
            </circle>
        </g>
    </defs>

    <g>
        <path
            clip-path="url(#ghost_searching:wave_animated)"
            d="M 457.18552,483.64124 H 42.814481 c 0,0 -21.185211,-465.919231 207.185509,-465.919231 228.37072,0 207.18553,465.919231 207.18553,465.919231 z"
            transform="scale(0.9) translate(25 25)" />
        <use
            x="225"
            y="170"
            href="#ghost_searching:eye_animated"
            width="100%"
            height="100%" />
        <use
            x="335"
            y="170"
            href="#ghost_searching:eye_animated"
            width="100%"
            height="100%" />
    </g>


</svg>